<?xml version="1.0" standalone="no"?>
<!DOCTYPE svg PUBLIC "-//W3C//DTD SVG 20010904//EN"
 "http://www.w3.org/TR/2001/REC-SVG-20010904/DTD/svg10.dtd">
<svg version="1.0" xmlns="http://www.w3.org/2000/svg"
 width="700.000000pt" height="700.000000pt" viewBox="0 0 700.000000 700.000000"
 preserveAspectRatio="xMidYMid meet">
<metadata>
Created by potrace 1.11, written by Peter Selinger 2001-2013
</metadata>
<g transform="translate(0.000000,700.000000) scale(0.100000,-0.100000)"
fill="#000000" stroke="none">
<path d="M5450 6971 c-47 -16 -182 -59 -300 -96 -304 -94 -591 -185 -620 -195
-14 -5 -99 -32 -190 -60 -91 -29 -248 -78 -350 -110 -244 -77 -761 -241 -886
-280 -54 -17 -175 -56 -269 -85 -93 -30 -258 -82 -365 -115 -204 -64 -243 -77
-585 -185 -212 -67 -337 -106 -744 -234 -123 -39 -225 -72 -227 -73 -1 -2 -5
-16 -8 -31 -15 -82 -48 -259 -57 -302 -6 -27 -13 -61 -15 -75 -2 -14 -11 -60
-20 -103 -8 -42 -18 -90 -20 -105 -3 -15 -21 -110 -40 -212 -20 -102 -37 -196
-40 -210 -2 -14 -9 -47 -14 -75 -16 -81 -19 -97 -26 -139 -3 -22 -7 -43 -9
-46 -2 -3 -6 -24 -9 -46 -4 -22 -8 -49 -10 -59 -2 -11 -23 -117 -45 -235 -22
-118 -45 -237 -51 -265 -6 -27 -12 -59 -14 -70 -10 -57 -17 -92 -21 -115 -3
-14 -8 -36 -10 -50 -2 -14 -15 -83 -29 -155 -51 -267 -65 -341 -71 -370 -2
-16 -7 -41 -10 -55 -4 -23 -13 -66 -21 -112 -2 -12 61 -71 204 -190 114 -95
209 -175 212 -178 3 -4 64 -56 135 -116 240 -201 367 -309 404 -341 19 -17 39
-30 42 -27 6 3 11 29 35 159 2 11 24 125 49 252 24 128 47 247 50 265 3 18 23
125 45 238 22 113 41 216 44 230 17 100 13 94 79 114 104 33 235 74 392 126
83 26 278 89 435 140 157 50 353 113 435 140 83 27 222 72 310 100 88 29 228
74 310 100 83 27 305 99 495 160 190 61 415 134 500 162 85 27 220 70 300 96
80 25 146 46 147 47 2 0 50 238 60 295 2 14 13 70 24 125 11 55 22 116 25 135
3 19 9 51 14 70 5 19 11 51 14 71 3 19 19 102 35 185 16 82 46 235 66 339 20
105 39 199 41 210 2 11 7 34 10 50 3 17 17 89 31 160 14 72 27 141 29 155 3
14 13 68 24 120 22 109 27 136 39 205 5 28 12 61 15 75 3 14 8 36 10 50 2 14
25 133 51 265 49 248 59 305 53 304 -2 0 -41 -13 -88 -28z"/>
<path d="M5542 5093 c-6 -27 -15 -75 -21 -108 -6 -33 -13 -71 -16 -85 -3 -14
-14 -74 -26 -135 -11 -60 -29 -153 -39 -205 -11 -52 -31 -156 -45 -230 -14
-74 -27 -145 -29 -156 -3 -12 -7 -37 -10 -55 -3 -19 -8 -43 -10 -54 -2 -11 -9
-48 -16 -82 l-13 -63 -171 -54 c-293 -94 -401 -128 -411 -130 -5 -2 -17 -6
-25 -9 -15 -6 -262 -83 -375 -117 -33 -10 -118 -37 -190 -60 -211 -67 -349
-111 -365 -115 -8 -2 -87 -27 -175 -55 -88 -29 -187 -60 -220 -70 -33 -10
-154 -48 -270 -85 -340 -108 -398 -126 -445 -140 -25 -8 -108 -34 -185 -58
-242 -78 -337 -108 -449 -142 -60 -19 -113 -38 -116 -42 -4 -4 -15 -46 -24
-93 -8 -47 -43 -229 -77 -405 -33 -176 -67 -354 -74 -395 -23 -119 -25 -131
-40 -210 -8 -41 -17 -88 -20 -105 -2 -16 -27 -147 -55 -290 -28 -143 -52 -271
-55 -285 -2 -14 -27 -144 -54 -290 -28 -146 -52 -277 -55 -293 -3 -15 -7 -35
-10 -45 -3 -9 -7 -33 -10 -52 -3 -19 -8 -46 -11 -60 -3 -14 -9 -50 -15 -80 -6
-30 -12 -66 -15 -80 -15 -77 -27 -152 -24 -155 2 -2 22 3 44 10 36 12 169 54
510 162 61 19 121 38 135 43 14 4 86 27 160 50 74 23 189 59 255 80 66 21 194
62 285 90 91 29 212 67 270 85 58 18 184 58 280 89 96 30 346 109 555 175 209
65 461 145 560 176 99 31 191 60 205 65 14 5 86 27 160 50 127 39 255 80 730
230 406 129 475 151 482 158 4 4 9 22 12 40 4 17 8 44 11 60 2 15 13 72 24
127 18 87 74 385 87 455 2 14 7 36 9 50 3 14 8 36 10 50 3 14 12 61 20 105 24
124 76 397 81 425 2 14 7 36 9 50 3 14 7 36 10 50 6 31 54 278 59 305 2 11 7
40 12 65 4 25 8 47 9 50 1 3 5 25 9 50 12 63 15 81 21 110 4 23 12 63 21 113
2 10 5 26 8 35 3 9 7 33 10 52 3 19 8 46 11 60 3 14 8 41 12 60 4 19 8 37 8
40 1 3 5 28 9 55 4 28 12 66 16 85 5 19 11 49 14 65 3 17 16 85 28 153 l22
123 -34 30 c-19 16 -41 34 -49 41 -7 6 -61 51 -120 101 -58 49 -126 106 -151
127 -25 21 -110 93 -190 160 -191 160 -240 202 -254 214 -22 21 -181 152 -193
159 -7 5 -15 -9 -21 -40z"/>
</g>
</svg>
